<?xml version="1.0" encoding="UTF-8"?>
<svg id="Capa_1" data-name="Capa 1" xmlns="http://www.w3.org/2000/svg" viewBox="0 0 107.28 125.83">
  <defs>
    <style>
      .cls-1 {
        fill: #fff;
      }
    </style>
  </defs>
  <path class="cls-1" d="m79.86,95.04h12.8L60.04,0h-12.8L14.61,95.04h12.8c.9-6.74,4.17-28.19,8.76-47.52C41.72,24.25,48.64,3.19,48.64,3.19l31.22,91.86Z"/>
  <path class="cls-1" d="m106.26,102.42c-3.23,2.52-6.86,4.65-10.87,6.4-4.02,1.75-8.28,3.17-12.79,4.27-4.51,1.1-9.22,1.91-14.14,2.44-4.92.53-9.86.79-14.82.79s-9.9-.26-14.82-.79c-4.92-.53-9.64-1.34-14.14-2.44-4.51-1.1-8.77-2.52-12.79-4.27-4.02-1.75-7.64-3.88-10.87-6.4l-1.02,2.68c3.08,2.85,6.65,5.51,10.71,7.99,4.06,2.48,8.4,4.68,13.01,6.58,4.62,1.91,9.47,3.41,14.54,4.51,5.07,1.1,10.2,1.65,15.38,1.65s10.31-.55,15.38-1.65c5.07-1.1,9.92-2.6,14.54-4.51,4.62-1.91,8.96-4.1,13.01-6.58,4.06-2.48,7.62-5.14,10.71-7.99l-1.01-2.68Z"/>
</svg>