<?xml version="1.0" encoding="UTF-8"?>
<svg id="Capa_1" data-name="Capa 1" xmlns="http://www.w3.org/2000/svg" viewBox="0 0 291.56 81.58">
  <defs>
    <style>
      .cls-1 {
        fill: #164070;
      }
    </style>
  </defs>
  <path class="cls-1" d="m275.56,57.81c4.84,0,8.69-.85,11.58-2.56,2.88-1.7,4.35-4.35,4.42-7.95,0-2.36-.65-4.29-1.95-5.81-1.3-1.52-2.88-2.71-4.74-3.58-1.86-.87-4.31-1.77-7.35-2.7-3.85-1.18-6.71-2.36-8.6-3.53-1.89-1.18-2.84-2.91-2.84-5.21s.84-4.17,2.51-5.44c1.67-1.27,3.91-1.91,6.7-1.91,2.48,0,4.59.62,6.32,1.86,1.73,1.24,2.57,3.01,2.51,5.3h6.42c0-2.85-1.21-4.98-3.63-6.37s-6.23-2.09-11.44-2.09c-4.71,0-8.51.84-11.39,2.51-2.88,1.67-4.36,4.22-4.42,7.63,0,2.42.63,4.39,1.91,5.9,1.27,1.52,2.85,2.7,4.74,3.53,1.89.84,4.35,1.75,7.39,2.74,3.84,1.18,6.71,2.36,8.6,3.53,1.89,1.18,2.84,2.88,2.84,5.11-.06,2.42-.98,4.31-2.74,5.67-1.77,1.36-3.95,2.05-6.56,2.05s-4.73-.7-6.56-2.09c-1.83-1.39-2.71-3.39-2.65-6h-6.42c-.06,2.92,1.16,5.21,3.67,6.88,2.51,1.67,6.4,2.51,11.67,2.51m-28.92-.46h6.42V18.29h-6.42v39.06Zm-14.14.46c4.4,0,7.75-1.22,10.04-3.67,1.88-2.2,3.66-5.1,4.09-7.95-2.6,6.02-6.57,9.02-11.9,9.02-3.66,0-6.49-1.26-8.51-3.77-2.02-2.51-3.02-5.94-3.02-10.28v-22.88h-6.42v23.16c0,3.53.74,6.52,2.23,8.97,1.49,2.45,3.43,4.29,5.81,5.53,2.39,1.24,4.94,1.86,7.67,1.86m-35.8,0c4.52,0,7.95-1.22,10.28-3.67,2.32-2.45,3.73-5.1,4.23-7.95-1.18,2.73-2.77,4.92-4.79,6.56-2.02,1.64-4.51,2.46-7.49,2.46-3.66,0-6.5-1.26-8.51-3.77-2.02-2.51-3.02-5.94-3.02-10.28v-6.7c0-4.34,1.01-7.76,3.02-10.28,2.01-2.51,4.85-3.77,8.51-3.77,2.97,0,5.47.82,7.49,2.46,2.01,1.64,3.61,3.83,4.79,6.56-.5-2.85-1.91-5.5-4.23-7.95-2.33-2.45-5.75-3.67-10.28-3.67-2.73,0-5.29.62-7.67,1.86-2.39,1.24-4.32,3.08-5.81,5.53-1.49,2.45-2.23,5.44-2.23,8.97v7.25c0,3.53.74,6.52,2.23,8.97,1.49,2.45,3.43,4.29,5.81,5.53,2.39,1.24,4.94,1.86,7.67,1.86m-57.57-.46h6.42V18.29h-6.42v39.06Zm29.85-22.88v22.88h6.42v-23.16c0-3.53-.74-6.52-2.23-8.97-1.49-2.45-3.43-4.29-5.81-5.53-2.39-1.24-4.95-1.86-7.67-1.86-4.4,0-7.75,1.22-10.04,3.67-2.29,2.45-3.66,5.1-4.09,7.95,2.6-6.01,6.57-9.02,11.9-9.02,3.66,0,6.49,1.26,8.51,3.77,2.01,2.51,3.02,5.94,3.02,10.28m-56.64,23.34c3.16,0,5.98-.9,8.46-2.7,2.48-1.8,4.09-4.34,4.84-7.63-1.12,2.42-2.7,4.26-4.74,5.53-2.05,1.27-4.22,1.91-6.51,1.91-2.54,0-4.73-.77-6.56-2.33-1.83-1.55-2.74-3.66-2.74-6.32,0-1.98.51-3.61,1.53-4.88,1.02-1.27,2.26-2.23,3.72-2.88,1.46-.65,3.43-1.38,5.91-2.18,2.42-.8,4.35-1.55,5.81-2.23,1.46-.68,2.59-1.58,3.39-2.7.12,1.24.19,2.26.19,3.07v22.88h6.42v-23.16c0-3.53-.74-6.52-2.23-8.97-1.49-2.45-3.43-4.29-5.81-5.53-2.39-1.24-4.95-1.86-7.67-1.86-4.53,0-7.95,1.22-10.28,3.67-2.32,2.45-3.74,5.1-4.23,7.95,1.18-2.73,2.77-4.91,4.79-6.56,2.01-1.64,4.51-2.46,7.49-2.46,3.22,0,5.8.96,7.72,2.88,1.92,1.92,3.13,4.59,3.63,8-.87.68-1.98,1.21-3.35,1.58-1.36.37-3.5.87-6.42,1.49-3.6.62-6.56,1.3-8.88,2.05-2.32.74-4.31,1.91-5.95,3.49-1.64,1.58-2.46,3.77-2.46,6.56,0,3.35,1.32,6.08,3.95,8.18,2.63,2.11,5.97,3.16,10,3.16m-34.69,0c4.84,0,8.7-.85,11.58-2.56,2.88-1.7,4.36-4.35,4.42-7.95,0-2.36-.65-4.29-1.95-5.81-1.3-1.52-2.88-2.71-4.74-3.58-1.86-.87-4.31-1.77-7.35-2.7-3.85-1.18-6.71-2.36-8.6-3.53-1.89-1.18-2.84-2.91-2.84-5.21s.84-4.17,2.51-5.44c1.67-1.27,3.91-1.91,6.7-1.91,2.48,0,4.59.62,6.32,1.86,1.73,1.24,2.57,3.01,2.51,5.3h6.42c0-2.85-1.21-4.98-3.63-6.37-2.42-1.39-6.23-2.09-11.44-2.09-4.71,0-8.51.84-11.39,2.51-2.88,1.67-4.36,4.22-4.42,7.63,0,2.42.64,4.39,1.91,5.9,1.27,1.52,2.85,2.7,4.74,3.53,1.89.84,4.35,1.75,7.39,2.74,3.84,1.18,6.71,2.36,8.6,3.53,1.89,1.18,2.84,2.88,2.84,5.11-.06,2.42-.98,4.31-2.74,5.67-1.77,1.36-3.95,2.05-6.56,2.05s-4.73-.7-6.56-2.09c-1.83-1.39-2.71-3.39-2.65-6h-6.42c-.06,2.92,1.16,5.21,3.67,6.88,2.51,1.67,6.4,2.51,11.67,2.51"/>
  <path class="cls-1" d="m49.03,58.35h7.86L36.86,0h-7.86L8.97,58.35h7.86c.55-4.14,2.56-17.31,5.38-29.17C25.61,14.89,29.86,1.96,29.86,1.96l19.17,56.39Z"/>
  <path class="cls-1" d="m65.24,62.6c-1.98,1.55-4.21,2.86-6.68,3.93-2.47,1.07-5.08,1.95-7.85,2.62-2.77.67-5.66,1.17-8.68,1.5-3.02.32-6.05.49-9.1.49s-6.08-.16-9.1-.49c-3.02-.32-5.92-.82-8.68-1.5-2.77-.67-5.39-1.55-7.85-2.62-2.47-1.07-4.69-2.38-6.68-3.93l-.62,1.65c1.89,1.75,4.08,3.38,6.57,4.9,2.49,1.52,5.15,2.87,7.99,4.04,2.84,1.17,5.81,2.1,8.92,2.77,3.11.67,6.26,1.01,9.44,1.01s6.33-.34,9.44-1.01c3.11-.67,6.09-1.6,8.92-2.77,2.84-1.17,5.5-2.52,7.99-4.04,2.49-1.52,4.68-3.16,6.57-4.9l-.62-1.65Z"/>
  <path class="cls-1" d="m233.58,81.48v-2.23h-6.67v-10.85h-2.54v13.08h9.21Zm-31.52-5.05l1.88-5.14,1.8,5.14h-3.68Zm-4.24,5.05h2.62l1.2-3.26h4.57l1.21,3.26h2.62l-4.97-13.08h-2.25l-4.99,13.08Zm-15.9,0h2.1v-6.72h-4.73v1.86h2.63v.92c-1.02,1.19-2.16,1.79-3.43,1.79-.55,0-1.07-.11-1.54-.34-.47-.23-.88-.54-1.22-.93s-.61-.86-.81-1.39c-.2-.53-.3-1.11-.3-1.72s.09-1.15.27-1.68c.18-.53.43-.99.76-1.4.32-.4.72-.72,1.18-.96.46-.23.97-.35,1.52-.35.7,0,1.35.17,1.94.52.6.34,1.06.84,1.39,1.49l1.9-1.4c-.44-.87-1.1-1.57-1.98-2.08-.88-.52-1.93-.77-3.16-.77-.91,0-1.75.17-2.52.52-.77.35-1.45.82-2.02,1.42-.57.6-1.02,1.29-1.35,2.08-.33.79-.49,1.64-.49,2.53,0,.95.16,1.83.49,2.64.32.82.77,1.53,1.33,2.13.56.6,1.22,1.08,1.97,1.42.76.34,1.56.52,2.42.52,1.39,0,2.6-.52,3.65-1.57v1.47Zm-30.23-2.23v-3.41h5.51v-2.06h-5.51v-3.15h6.37v-2.23h-8.92v13.08h9.08v-2.23h-6.54Zm-16.98,2.23v-2.23h-6.67v-10.85h-2.54v13.08h9.21Z"/>
</svg>